#!OML:ASF I:\Actors\actors\Patient Classification 1\Patient 1\Session 1\Subject1.ASF
:FULLY-SPECIFIED
:DEGREES
1024
root -0.732977 17.5337 7.26142 5.41752 -3.37717 -6.16301
lowerback 2.46178 -1.1378 2.68674
upperback -7.19086 -1.14384 2.72648
thorax -8.95663 -0.640279 1.49882
lowerneck -8.6178 -7.57159 -3.23376
upperneck 31.3142 -12.5528 6.11671
head 12.3881 -5.3466 1.17943
rclavicle -1.5791e-014 4.63168e-014
rhumerus 3.55766 60.8438 -53.5185
rradius 112.703
rwrist 45.3276
rhand -0.673826 -16.9108
rfingers 7.12502
rthumb 24.9448 -45.3027
lclavicle -1.5791e-014 4.63168e-014
lhumerus -41.4552 -43.8244 108.139
lradius 105.115
lwrist -35.7893
lhand -43.9821 -56.2363
lfingers 7.12502
lthumb -16.804 -26.9435
rfemur -0.88938 22.1002 26.4123
rtibia 2.79206
rfoot -10.7125 -20.736
rtoes 3.75927
lfemur 6.97894 -36.6845 -15.5709
ltibia -3.0091
lfoot -17.5061 48.6479
ltoes 12.0005
1025
root -0.729968 17.5339 7.2559 5.41084 -3.40827 -6.17543
lowerback 2.32145 -1.15756 2.60739
upperback -7.09748 -1.17914 2.81613
thorax -8.76694 -0.648019 1.6344
lowerneck -8.65082 -7.5712 -3.23876
upperneck 31.2261 -12.5367 6.10618
head 12.357 -5.34256 1.17755
rclavicle 1.4238e-014 -2.65378e-014
rhumerus 4.22091 60.9454 -52.817
rradius 112.796
rwrist 45.1929
rhand -0.579409 -17.193
rfingers 7.12502
rthumb 25.0353 -45.5723
lclavicle 1.4238e-014 -2.65378e-014
lhumerus -41.2381 -43.7853 108.075
lradius 105.026
lwrist -35.697
lhand -43.8068 -55.7395
lfingers 7.12502
lthumb -16.6352 -26.4324
rfemur -0.890673 22.1411 26.4134
rtibia 2.77235
rfoot -10.6909 -20.7536
rtoes 3.77412
lfemur 6.98464 -36.6773 -15.5646
ltibia -3.02227
lfoot -17.5221 48.6598
ltoes 12.0145
1026
root -0.727044 17.5342 7.25035 5.40589 -3.44465 -6.18423
lowerback 2.17381 -1.16989 2.57427
upperback -7.00217 -1.20447 2.86679
thorax -8.57309 -0.655903 1.70136
lowerneck -8.6761 -7.5763 -3.2419
upperneck 31.1362 -12.5453 6.1454
head 12.3292 -5.34378 1.19066
rclavicle 2.90847e-014 -5.46658e-015
rhumerus 4.57336 60.9247 -52.4724
rradius 112.809
rwrist 45.1635
rhand -0.508359 -17.308
rfingers 7.12502
rthumb 25.1034 -45.6778
lclavicle 2.90847e-014 -5.46658e-015
lhumerus -41.0586 -43.8156 108.009
lradius 104.969
lwrist -35.5947
lhand -43.7541 -55.1326
lfingers 7.12502
lthumb -16.5845 -25.8213
rfemur -0.893696 22.1749 26.4087
rtibia 2.7496
rfoot -10.6625 -20.7588
rtoes 3.78888
lfemur 6.97992 -36.6583 -15.5571
ltibia -3.02754
lfoot -17.5545 48.6636
ltoes 12.052
1027
root -0.724191 17.5345 7.24477 5.39898 -3.4864 -6.18267
lowerback 2.08554 -1.17391 2.59688
upperback -6.94217 -1.21462 2.86647
thorax -8.4558 -0.662285 1.68469
lowerneck -8.69068 -7.58676 -3.24139
upperneck 31.0849 -12.5804 6.22241
head 12.32 -5.35124 1.21367
rclavicle 2.79168e-014 -5.28767e-014
rhumerus 4.74752 60.9043 -52.3164
rradius 112.793
rwrist 45.1723
rhand -0.418551 -17.4077
rfingers 7.12502
rthumb 25.1894 -45.7654
lclavicle 2.79168e-014 -5.28767e-014
lhumerus -40.9943 -43.9056 107.986
lradius 104.965
lwrist -35.457
lhand -43.7992 -54.393
lfingers 7.12502
lthumb -16.6279 -25.0853
rfemur -0.893247 22.2044 26.3922
rtibia 2.72074
rfoot -10.625 -20.755
rtoes 3.7867
lfemur 6.97655 -36.6317 -15.5632
ltibia -3.03168
lfoot -17.6014 48.6635
ltoes 12.1242
1028
root -0.721509 17.5349 7.23922 5.38841 -3.53276 -6.16718
lowerback 2.09882 -1.17055 2.64837
upperback -6.94106 -1.20871 2.83153
thorax -8.46446 -0.664218 1.61884
lowerneck -8.692 -7.60159 -3.25181
upperneck 31.091 -12.6336 6.31786
head 12.3353 -5.36472 1.24301
rclavicle -1.19644e-014 1.3418e-014
rhumerus 4.7527 60.9398 -52.2984
rradius 112.765
rwrist 45.1995
rhand -0.312519 -17.5198
rfingers 7.12502
rthumb 25.291 -45.8632
lclavicle -1.19644e-014 1.3418e-014
lhumerus -41.0713 -44.0129 108.041
lradius 105.014
lwrist -35.2726
lhand -43.8682 -53.5864
lfingers 7.12502
lthumb -16.6943 -24.2843
rfemur -0.887713 22.2308 26.3608
rtibia 2.68697
rfoot -10.5801 -20.7445
rtoes 3.75196
lfemur 6.98528 -36.6135 -15.5941
ltibia -3.04025
lfoot -17.6759 48.6726
ltoes 12.2566
1029
root -0.719024 17.5353 7.23378 5.37631 -3.58045 -6.14145
lowerback 2.17956 -1.16084 2.7023
upperback -6.98018 -1.19036 2.78438
thorax -8.55733 -0.660902 1.54085
lowerneck -8.67904 -7.62006 -3.26674
upperneck 31.1235 -12.6935 6.40845
head 12.3589 -5.382 1.27089
rclavicle 2.34193e-014 1.47101e-014
rhumerus 4.54911 60.9882 -52.4569
rradius 112.711
rwrist 45.2653
rhand -0.225871 -17.5792
rfingers 7.12502
rthumb 25.374 -45.9109
lclavicle 2.34193e-014 1.47101e-014
lhumerus -41.2243 -44.1103 108.151
lradius 105.101
lwrist -35.0556
lhand -43.8835 -52.8428
lfingers 7.12502
lthumb -16.709 -23.5419
rfemur -0.880947 22.2574 26.3186
rtibia 2.65229
rfoot -10.5326 -20.7335
rtoes 3.6874
lfemur 7.00464 -36.6138 -15.6449
ltibia -3.05409
lfoot -17.7736 48.6991
ltoes 12.4328
1030
root -0.716629 17.5355 7.22849 5.36568 -3.62427 -6.11464
lowerback 2.25613 -1.1472 2.72791
upperback -7.02032 -1.16738 2.75592
thorax -8.64786 -0.652727 1.4978
lowerneck -8.66216 -7.64337 -3.30307
upperneck 31.146 -12.7505 6.48628
head 12.378 -5.40224 1.29818
rclavicle -3.32095e-014 3.24019e-014
rhumerus 4.40229 61.0678 -52.5093
rradius 112.658
rwrist 45.3014
rhand -0.177187 -17.6552
rfingers 7.12502
rthumb 25.4206 -45.9802
lclavicle -3.32095e-014 3.24019e-014
lhumerus -41.3538 -44.1873 108.277
lradius 105.198
lwrist -34.8538
lhand -43.8343 -52.2729
lfingers 7.12502
lthumb -16.6617 -22.968
rfemur -0.876659 22.2837 26.275
rtibia 2.61909
rfoot -10.4869 -20.7262
rtoes 3.59542
lfemur 7.02607 -36.6311 -15.6999
ltibia -3.07044
lfoot -17.8729 48.7411
ltoes 12.6095
1031
root -0.714117 17.5355 7.22347 5.36185 -3.6603 -6.09649
lowerback 2.25503 -1.13234 2.71353
upperback -7.02294 -1.14762 2.76554
thorax -8.64961 -0.641681 1.51412
lowerneck -8.65411 -7.66754 -3.34913
upperneck 31.126 -12.7914 6.53699
head 12.3786 -5.42045 1.31905
rclavicle -1.07095e-014 2.01766e-014
rhumerus 4.31567 61.1055 -52.4778
rradius 112.589
rwrist 45.326
rhand -0.203189 -17.6631
rfingers 7.12502
rthumb 25.3957 -45.9917
lclavicle -1.07095e-014 2.01766e-014
lhumerus -41.3704 -44.2495 108.371
lradius 105.273
lwrist -34.7113
lhand -43.7658 -51.9466
lfingers 7.12502
lthumb -16.5958 -22.6362
rfemur -0.881334 22.3015 26.2376
rtibia 2.58969
rfoot -10.4473 -20.7178
rtoes 3.49046
lfemur 7.03834 -36.6628 -15.7418
ltibia -3.08533
lfoot -17.9589 48.7948
ltoes 12.7635
1032
root -0.711368 17.5351 7.21875 5.36578 -3.6879 -6.08724
lowerback 2.1652 -1.11863 2.66897
upperback -6.98047 -1.13479 2.80783
thorax -8.54818 -0.630436 1.57849
lowerneck -8.66711 -7.68981 -3.38884
upperneck 31.0633 -12.8129 6.55313
head 12.3612 -5.43375 1.32801
rclavicle 9.10682e-015 -9.64106e-015
rhumerus 4.41589 61.1161 -52.2527
rradius 112.536
rwrist 45.2867
rhand -0.304547 -17.6414
rfingers 7.12502
rthumb 25.2986 -45.9837
lclavicle 9.10682e-015 -9.64106e-015
lhumerus -41.2635 -44.3052 108.409
lradius 105.307
lwrist -34.6323
lhand -43.7334 -51.9104
lfingers 7.12502
lthumb -16.5645 -22.5973
rfemur -0.895912 22.3075 26.2053
rtibia 2.56375
rfoot -10.4163 -20.7042
rtoes 3.4012
lfemur 7.03622 -36.7029 -15.7674
ltibia -3.0951
lfoot -18.0252 48.8526
ltoes 12.8842
1033
root -0.708441 17.5344 7.21424 5.37428 -3.71094 -6.07922
lowerback 2.04703 -1.10596 2.62998
upperback -6.92417 -1.12483 2.84896
thorax -8.41522 -0.621045 1.63757
lowerneck -8.70608 -7.7089 -3.4051
upperneck 30.9982 -12.8245 6.54142
head 12.3434 -5.44245 1.32301
rclavicle 5.56597e-015 -7.65321e-015
rhumerus 4.58003 61.0965 -51.9921
rradius 112.51
rwrist 45.193
rhand -0.444981 -17.5965
rfingers 7.12502
rthumb 25.1641 -45.9578
lclavicle 5.56597e-015 -7.65321e-015
lhumerus -41.1253 -44.3703 108.41
lradius 105.305
lwrist -34.5809
lhand -43.7936 -52.185
lfingers 7.12502
lthumb -16.6225 -22.8768
rfemur -0.916498 22.3042 26.1702
rtibia 2.53906
rfoot -10.3945 -20.6831
rtoes 3.35272
lfemur 7.02396 -36.7501 -15.7889
ltibia -3.09703
lfoot -18.0898 48.9116
ltoes 12.9955
1034
root -0.705477 17.5337 7.2098 5.38572 -3.73499 -6.06605
lowerback 1.96392 -1.09516 2.62942
upperback -6.89134 -1.1147 2.85844
thorax -8.33026 -0.615523 1.64354
lowerneck -8.76474 -7.72166 -3.39339
upperneck 30.9771 -12.8341 6.51679
head 12.3446 -5.44679 1.30786
rclavicle -8.79622e-015 4.14466e-014
rhumerus 4.56904 61.0272 -51.9697
rradius 112.493
rwrist 45.1058
rhand -0.583961 -17.5076
rfingers 7.12502
rthumb 25.0309 -45.8875
lclavicle -8.79622e-015 4.14466e-014
lhumerus -41.0625 -44.4504 108.407
lradius 105.28
lwrist -34.5098
lhand -43.9794 -52.7551
lfingers 7.12502
lthumb -16.8014 -23.462
rfemur -0.943288 22.2925 26.1257
rtibia 2.51718
rfoot -10.3801 -20.6501
rtoes 3.35192
lfemur 7.00716 -36.8056 -15.8172
ltibia -3.09218
lfoot -18.1587 48.9774
ltoes 13.1026
1035
root -0.702694 17.533 7.20536 5.39595 -3.76155 -6.04539
lowerback 1.93791 -1.08814 2.67297
upperback -6.89414 -1.10574 2.82821
thorax -8.31962 -0.615198 1.58585
lowerneck -8.83008 -7.72669 -3.35988
upperneck 31.0127 -12.8452 6.49328
head 12.3691 -5.44744 1.28883
rclavicle -2.90723e-015 4.17448e-015
rhumerus 4.52142 60.9812 -52.0458
rradius 112.507
rwrist 44.988
rhand -0.664312 -17.5229
rfingers 7.12502
rthumb 24.9539 -45.9136
lclavicle -2.90723e-015 4.17448e-015
lhumerus -41.115 -44.5399 108.416
lradius 105.247
lwrist -34.3801
lhand -44.2619 -53.5489
lfingers 7.12502
lthumb -17.0734 -24.2791
rfemur -0.972713 22.2769 26.0724
rtibia 2.501
rfoot -10.3716 -20.6097
rtoes 3.39568
lfemur 6.99442 -36.8681 -15.8586
ltibia -3.0855
lfoot -18.2152 49.0528
ltoes 13.1748
1036
root -0.700318 17.5325 7.20097 5.4012 -3.7891 -6.02296
lowerback 1.97771 -1.08743 2.74692
upperback -6.93537 -1.10076 2.77188
thorax -8.39091 -0.620126 1.48708
lowerneck -8.88252 -7.7237 -3.32261
upperneck 31.0939 -12.8566 6.48359
head 12.4107 -5.44541 1.27468
rclavicle 6.41081e-015 -2.34566e-014
rhumerus 4.39839 60.9676 -52.2444
rradius 112.537
rwrist 44.8725
rhand -0.667302 -17.6413
rfingers 7.12502
rthumb 24.9511 -46.0324
lclavicle 6.41081e-015 -2.34566e-014
lhumerus -41.2826 -44.6157 108.45
lradius 105.222
lwrist -34.1829
lhand -44.5874 -54.4226
lfingers 7.12502
lthumb -17.3866 -25.1802
rfemur -0.999384 22.2669 26.0216
rtibia 2.49285
rfoot -10.3687 -20.5734
rtoes 3.47701
lfemur 6.99581 -36.9414 -15.9096
ltibia -3.08366
lfoot -18.265 49.1397
ltoes 13.2233
1037
root -0.698501 17.5321 7.19664 5.4013 -3.81673 -6.00958
lowerback 2.0485 -1.09473 2.82916
upperback -6.99418 -1.10398 2.71461
thorax -8.50004 -0.629947 1.38485
lowerneck -8.90204 -7.71317 -3.29999
upperneck 31.1793 -12.8633 6.49873
head 12.4504 -5.44116 1.27435
rclavicle -2.85753e-016 -4.17448e-014
rhumerus 4.0731 60.9259 -52.6761
rradius 112.537
rwrist 44.8349
rhand -0.61998 -17.7367
rfingers 7.12502
rthumb 24.9964 -46.1215
lclavicle -2.85753e-016 -4.17448e-014
lhumerus -41.5069 -44.6584 108.496
lradius 105.213
lwrist -33.9445
lhand -44.9187 -55.2397
lfingers 7.12502
lthumb -17.7054 -26.0258
rfemur -1.02124 22.2696 25.9886
rtibia 2.49248
rfoot -10.3644 -20.5491
rtoes 3.55847
lfemur 7.01538 -37.0258 -15.9564
ltibia -3.09427
lfoot -18.3062 49.24
ltoes 13.253
